<svg xmlns="http://www.w3.org/2000/svg" width="33.335" height="40" viewBox="0 0 33.335 40">
  <g id="bell_icon" data-name="bell icon" transform="translate(-941.333 -55)">
    <g id="Group_22" data-name="Group 22">
      <g id="Group_21" data-name="Group 21">
        <path id="Path_40" data-name="Path 40" d="M974.548,88.738l-2.863-4.77a14.175,14.175,0,0,1-2.018-7.29V72.5a11.667,11.667,0,1,0-23.334,0v4.178a14.175,14.175,0,0,1-2.018,7.29l-2.863,4.77A.832.832,0,0,0,942.167,90h31.666a.832.832,0,0,0,.715-1.262Zm-30.91-.4,2.1-3.508A15.829,15.829,0,0,0,948,76.678V72.5a10,10,0,0,1,20,0v4.178a15.846,15.846,0,0,0,2.255,8.147l2.107,3.508Z" fill="#919299"/>
      </g>
    </g>
    <g id="Group_24" data-name="Group 24">
      <g id="Group_23" data-name="Group 23">
        <path id="Path_41" data-name="Path 41" d="M958,55a3.337,3.337,0,0,0-3.333,3.333v3.334a.833.833,0,0,0,1.666,0V58.333a1.667,1.667,0,0,1,3.334,0v3.334a.833.833,0,0,0,1.666,0V58.333A3.337,3.337,0,0,0,958,55Z" fill="#919299"/>
      </g>
    </g>
    <g id="Group_26" data-name="Group 26">
      <g id="Group_25" data-name="Group 25">
        <path id="Path_42" data-name="Path 42" d="M961.607,88.745a.834.834,0,0,0-1.44.843,2.5,2.5,0,1,1-4.33,0,.834.834,0,0,0-1.44-.843,4.168,4.168,0,1,0,7.21,0Z" fill="#919299"/>
      </g>
    </g>
  </g>
</svg>
