<svg xmlns="http://www.w3.org/2000/svg" width="100" height="100" viewBox="0 0 100 100">
  <g id="Icon" transform="translate(-1188.463 -644.882)">
    <path id="Path_32" data-name="Path 32" d="M1268.932,671.445a1.953,1.953,0,1,0,1.953-1.954A1.954,1.954,0,0,0,1268.932,671.445Z" fill="#545454"/>
    <path id="Path_33" data-name="Path 33" d="M1276.745,694.882A37.158,37.158,0,0,1,1276,702.3a1.953,1.953,0,1,0,3.828.781,41.106,41.106,0,0,0,.824-8.2,40.577,40.577,0,0,0-3.965-17.59,1.953,1.953,0,0,0-3.527,1.68A36.7,36.7,0,0,1,1276.745,694.882Z" fill="#545454"/>
    <path id="Path_34" data-name="Path 34" d="M1248.229,712.46h-1.953V687.07a1.954,1.954,0,0,0-1.953-1.954H1228.7a1.953,1.953,0,0,0-1.953,1.954v7.812a1.953,1.953,0,0,0,1.953,1.953h1.953V712.46H1228.7a1.952,1.952,0,0,0-1.953,1.953v7.813a1.953,1.953,0,0,0,1.953,1.953h19.531a1.953,1.953,0,0,0,1.953-1.953v-7.813A1.952,1.952,0,0,0,1248.229,712.46Zm-1.953,7.813h-15.625v-3.907h1.953a1.953,1.953,0,0,0,1.953-1.953V694.882a1.952,1.952,0,0,0-1.953-1.953h-1.953v-3.906h11.719v25.39a1.953,1.953,0,0,0,1.953,1.953h1.953Z" fill="#545454"/>
    <path id="Path_35" data-name="Path 35" d="M1238.463,681.21a7.813,7.813,0,1,0-7.812-7.812A7.822,7.822,0,0,0,1238.463,681.21Zm0-11.719a3.906,3.906,0,1,1-3.906,3.907A3.912,3.912,0,0,1,1238.463,669.491Z" fill="#545454"/>
    <path id="Path_36" data-name="Path 36" d="M1238.463,644.882c-26.948,0-50,23.008-50,50a53.259,53.259,0,0,0,7.1,26.442l-7,20.988a1.953,1.953,0,0,0,2.471,2.469l20.988-7a53.242,53.242,0,0,0,26.441,7.1c26.956,0,50-23.011,50-50C1288.463,667.927,1265.453,644.882,1238.463,644.882Zm0,96.094a48.853,48.853,0,0,1-25.148-6.982,1.952,1.952,0,0,0-1.663-.2l-18.147,6.05,6.049-18.148a1.948,1.948,0,0,0-.2-1.663,48.857,48.857,0,0,1-6.981-25.148c0-24.985,21.108-46.094,46.093-46.094s46.094,21.109,46.094,46.094S1263.449,740.976,1238.463,740.976Z" fill="#545454"/>
  </g>
</svg>
