<svg xmlns="http://www.w3.org/2000/svg" width="130" height="77.607" viewBox="0 0 130 77.607">
  <g id="Icon" transform="translate(-589.5 -345.621)">
    <path id="Path_8" data-name="Path 8" d="M598.784,364.19A9.285,9.285,0,1,0,589.5,354.9,9.3,9.3,0,0,0,598.784,364.19Zm0-14.761a5.476,5.476,0,1,1-5.475,5.476A5.481,5.481,0,0,1,598.784,349.429Z" fill="#545454"/>
    <path id="Path_9" data-name="Path 9" d="M621.921,393.708H682.2a9.284,9.284,0,0,0,0-18.568H621.921a9.284,9.284,0,1,0,0,18.568Zm0-14.759H682.2a5.475,5.475,0,0,1,0,10.951H621.921a5.475,5.475,0,0,1,0-10.951Z" fill="#545454"/>
    <path id="Path_10" data-name="Path 10" d="M598.784,423.228a9.285,9.285,0,1,0-9.284-9.284A9.295,9.295,0,0,0,598.784,423.228Zm0-14.76a5.475,5.475,0,1,1-5.475,5.476A5.481,5.481,0,0,1,598.784,408.468Z" fill="#545454"/>
    <path id="Path_11" data-name="Path 11" d="M621.921,423.228H682.2a9.285,9.285,0,0,0,0-18.569H621.921a9.285,9.285,0,0,0,0,18.569Zm0-14.76H682.2a5.475,5.475,0,1,1,0,10.95H621.921a5.475,5.475,0,1,1,0-10.95Z" fill="#545454"/>
    <path id="Path_12" data-name="Path 12" d="M718.943,347.7a1.9,1.9,0,0,0-2.694,0l-10.366,10.366-6.008-6.007a1.9,1.9,0,1,0-2.694,2.692l7.356,7.355a1.9,1.9,0,0,0,2.692,0l11.714-11.713A1.905,1.905,0,0,0,718.943,347.7Z" fill="#545454"/>
    <path id="Path_13" data-name="Path 13" d="M718.943,377.221a1.9,1.9,0,0,0-2.694,0l-10.366,10.367-6.008-6.009a1.9,1.9,0,0,0-2.694,2.693l7.356,7.355a1.9,1.9,0,0,0,2.692,0l11.714-11.713A1.905,1.905,0,0,0,718.943,377.221Z" fill="#545454"/>
    <path id="Path_14" data-name="Path 14" d="M718.943,406.741a1.9,1.9,0,0,0-2.694,0l-10.366,10.366-6.008-6.008a1.9,1.9,0,0,0-2.694,2.693l7.356,7.354a1.9,1.9,0,0,0,2.692,0l11.714-11.712A1.905,1.905,0,0,0,718.943,406.741Z" fill="#545454"/>
    <path id="Path_15" data-name="Path 15" d="M621.921,349.429h25.694a1.9,1.9,0,0,0,0-3.808H621.921a9.284,9.284,0,0,0,0,18.568H682.2a9.284,9.284,0,0,0,0-18.568H656.5a1.9,1.9,0,1,0,0,3.808H682.2a5.476,5.476,0,0,1,0,10.951H621.921a5.476,5.476,0,0,1,0-10.951Z" fill="#545454"/>
    <path id="Path_16" data-name="Path 16" d="M598.784,393.708a9.217,9.217,0,0,0,7.411-3.692,1.9,1.9,0,0,0-3.039-2.3,5.475,5.475,0,1,1,0-6.591,1.9,1.9,0,0,0,3.039-2.3,9.284,9.284,0,1,0-7.411,14.875Z" fill="#545454"/>
  </g>
</svg>
