<svg xmlns="http://www.w3.org/2000/svg" width="125" height="75.187" viewBox="0 0 125 75.187">
  <g id="Icon" transform="translate(-1175.963 -351.872)">
    <g id="Group_9" data-name="Group 9">
      <path id="Path_22" data-name="Path 22" d="M1280.13,380.518a10.417,10.417,0,1,1,10.417-10.417A10.447,10.447,0,0,1,1280.13,380.518Zm0-15.625a5.208,5.208,0,1,0,5.208,5.208A4.92,4.92,0,0,0,1280.13,364.893Z" fill="#545454"/>
    </g>
    <g id="Group_10" data-name="Group 10">
      <path id="Path_23" data-name="Path 23" d="M1298.359,415.593a2.461,2.461,0,0,1-2.6-2.6V401a8.01,8.01,0,0,0-7.813-7.812h-15.625a2.6,2.6,0,0,1,0-5.209h15.625A12.9,12.9,0,0,1,1300.963,401v11.992A2.46,2.46,0,0,1,1298.359,415.593Z" fill="#545454"/>
    </g>
    <g id="Group_11" data-name="Group 11">
      <path id="Path_24" data-name="Path 24" d="M1196.8,380.518a10.417,10.417,0,1,1,10.416-10.417A10.447,10.447,0,0,1,1196.8,380.518Zm0-15.625a5.208,5.208,0,1,0,5.208,5.208A4.921,4.921,0,0,0,1196.8,364.893Z" fill="#545454"/>
    </g>
    <g id="Group_12" data-name="Group 12">
      <path id="Path_25" data-name="Path 25" d="M1178.567,415.593a2.461,2.461,0,0,1-2.6-2.6V398.747a12.9,12.9,0,0,1,13.021-13.021h15.625a2.6,2.6,0,0,1,0,5.209h-15.625a8.01,8.01,0,0,0-7.812,7.812v14.242A2.461,2.461,0,0,1,1178.567,415.593Z" fill="#545454"/>
    </g>
    <g id="Group_13" data-name="Group 13">
      <path id="Path_26" data-name="Path 26" d="M1238.463,383.122a15.625,15.625,0,1,1,15.625-15.625A15.346,15.346,0,0,1,1238.463,383.122Zm0-26.041A10.417,10.417,0,1,0,1248.88,367.5,10.446,10.446,0,0,0,1238.463,357.081Z" fill="#545454"/>
    </g>
    <g id="Group_14" data-name="Group 14">
      <path id="Path_27" data-name="Path 27" d="M1264.505,427.059a2.46,2.46,0,0,1-2.6-2.6v-20.5a8.011,8.011,0,0,0-7.813-7.813h-31.25a8.01,8.01,0,0,0-7.812,7.813v20.5a2.6,2.6,0,0,1-5.209,0v-20.5a12.9,12.9,0,0,1,13.021-13.021h31.25a12.894,12.894,0,0,1,13.021,13.021v20.5A2.46,2.46,0,0,1,1264.505,427.059Z" fill="#545454"/>
    </g>
  </g>
</svg>
