<svg xmlns="http://www.w3.org/2000/svg" width="20.094" height="20.094" viewBox="0 0 20.094 20.094">
  <path id="Message_icon" data-name="Message icon" d="M254.359,625.937H240.125a2.933,2.933,0,0,0-2.93,2.93v10.047a2.934,2.934,0,0,0,2.93,2.931H250l4.063,4.064a.422.422,0,0,0,.3.122.431.431,0,0,0,.16-.032.417.417,0,0,0,.258-.386v-3.8a2.937,2.937,0,0,0,2.512-2.9V628.867A2.933,2.933,0,0,0,254.359,625.937Zm2.093,12.977a2.1,2.1,0,0,1-2.093,2.094.419.419,0,0,0-.419.418V644.6l-3.471-3.472a.422.422,0,0,0-.3-.122H240.125a2.1,2.1,0,0,1-2.093-2.094V628.867a2.1,2.1,0,0,1,2.093-2.093h14.234a2.1,2.1,0,0,1,2.093,2.093Z" transform="translate(-237.195 -625.937)" fill="#fff"/>
</svg>
