<svg xmlns="http://www.w3.org/2000/svg" width="100" height="99.996" viewBox="0 0 100 99.996">
  <g id="Icon" transform="translate(-896.5 -644.884)">
    <g id="_012---Upload-Folder" data-name="012---Upload-Folder">
      <path id="Shape" d="M986.5,666.683v-3.466a8.342,8.342,0,0,0-8.333-8.333H949.835v-1.667a8.343,8.343,0,0,0-8.333-8.333H904.837a8.344,8.344,0,0,0-8.333,8.333v53.331a1.666,1.666,0,1,0,3.333,0V653.217a5,5,0,0,1,5-5H941.5a5,5,0,0,1,5,5v3.333a1.667,1.667,0,0,0,1.667,1.667h30a5,5,0,0,1,5,5v3.333H936.5a1.667,1.667,0,0,0,0,3.333h48.332a8.343,8.343,0,0,1,8.333,8.333v48.331a8.343,8.343,0,0,1-8.333,8.333H951.5a1.667,1.667,0,0,0,0,3.334h33.332A11.68,11.68,0,0,0,996.5,726.547V678.216A11.667,11.667,0,0,0,986.5,666.683Z" fill="#545454"/>
      <path id="Shape-2" data-name="Shape" d="M928.169,669.883a1.667,1.667,0,1,0,0-3.333H921.5a1.667,1.667,0,1,0,0,3.333Z" fill="#545454"/>
      <path id="Shape-3" data-name="Shape" d="M896.8,719.579a3.3,3.3,0,0,0,3.038,1.969h5v20a3.333,3.333,0,0,0,3.333,3.333H941.5a3.333,3.333,0,0,0,3.333-3.333v-20h5a3.334,3.334,0,0,0,2.462-5.582l-24.961-26.632a3.465,3.465,0,0,0-4.953-.033L897.349,716A3.3,3.3,0,0,0,896.8,719.579Zm28.067-28,24.979,26.633h-5.01a3.334,3.334,0,0,0-3.333,3.334v20h-6.666v-5a1.667,1.667,0,1,0-3.333,0v5h-5v-10a1.667,1.667,0,0,0-3.333,0v10h-5v-5a1.667,1.667,0,1,0-3.333,0v5H908.17v-20a3.334,3.334,0,0,0-3.333-3.334l-5.026.034Z" fill="#545454"/>
      <path id="Shape-4" data-name="Shape" d="M916.5,731.547a1.666,1.666,0,0,0,1.667-1.666v-3.334a1.667,1.667,0,0,0-3.333,0v3.334A1.666,1.666,0,0,0,916.5,731.547Z" fill="#545454"/>
    </g>
  </g>
</svg>
