<svg xmlns="http://www.w3.org/2000/svg" width="100" height="99.994" viewBox="0 0 100 99.994">
  <g id="Icon" transform="translate(-311.499 -334.427)">
    <path id="Path_4" data-name="Path 4" d="M411.5,372.754c0-.035-.018-.065-.02-.1a1.586,1.586,0,0,0-.068-.341,1.734,1.734,0,0,0-.1-.288,1.667,1.667,0,0,0-.166-.25,1.623,1.623,0,0,0-.227-.263c-.027-.024-.039-.055-.067-.077l-16.023-12.448v-12.9a5,5,0,0,0-5-5H371.77l-7.232-5.615a4.944,4.944,0,0,0-6.079,0l-7.233,5.615H333.164a5,5,0,0,0-5,5v12.9l-16.022,12.448c-.028.022-.04.053-.067.077a1.668,1.668,0,0,0-.226.263,1.533,1.533,0,0,0-.167.25,1.731,1.731,0,0,0-.1.288,1.535,1.535,0,0,0-.068.334c0,.033-.02.063-.02.1v56.674a4.912,4.912,0,0,0,.278,1.575,1.652,1.652,0,0,0,1.833,2.5,4.96,4.96,0,0,0,2.887.925h90a4.966,4.966,0,0,0,2.9-.938,1.625,1.625,0,0,0,.438.072,1.651,1.651,0,0,0,1.39-2.558,4.976,4.976,0,0,0,.277-1.576V372.754Zm-51-34.652a1.6,1.6,0,0,1,1.988,0l3.845,2.985h-9.667ZM316.91,431.088,360.5,397.231a1.6,1.6,0,0,1,1.986,0l43.6,33.857Zm91.255-2.6L364.534,394.6a4.944,4.944,0,0,0-6.073,0L314.83,428.485V375.292L342.142,396.5a1.667,1.667,0,1,0,2.044-2.635l-27.747-21.547,11.725-9.11v12.878a1.667,1.667,0,1,0,3.333,0v-30a1.667,1.667,0,0,1,1.667-1.667h56.667a1.667,1.667,0,0,1,1.667,1.667v30a1.667,1.667,0,1,0,3.333,0V363.209l11.725,9.11L378.76,393.9a1.667,1.667,0,1,0,2.045,2.634l27.36-21.246Z" fill="#545454"/>
    <path id="Path_5" data-name="Path 5" d="M344.831,356.087h33.334a1.667,1.667,0,0,0,0-3.333H344.831a1.667,1.667,0,1,0,0,3.333Z" fill="#545454"/>
    <path id="Path_6" data-name="Path 6" d="M379.831,364.42a1.666,1.666,0,0,0-1.666-1.666H344.831a1.667,1.667,0,1,0,0,3.333h33.334A1.666,1.666,0,0,0,379.831,364.42Z" fill="#545454"/>
    <path id="Path_7" data-name="Path 7" d="M379.831,374.421a1.666,1.666,0,0,0-1.666-1.667h-15a1.667,1.667,0,0,0,0,3.333h15A1.666,1.666,0,0,0,379.831,374.421Z" fill="#545454"/>
  </g>
</svg>
