<svg xmlns="http://www.w3.org/2000/svg" width="40" height="40" viewBox="0 0 40 40">
  <path id="Message_icon" data-name="Message icon" d="M872.167,55H843.833A5.84,5.84,0,0,0,838,60.833v20a5.84,5.84,0,0,0,5.833,5.834h19.655l8.089,8.09a.84.84,0,0,0,.59.243.866.866,0,0,0,.318-.063.834.834,0,0,0,.515-.77V86.608a5.844,5.844,0,0,0,5-5.775v-20A5.84,5.84,0,0,0,872.167,55Zm4.166,25.833A4.171,4.171,0,0,1,872.167,85a.834.834,0,0,0-.834.833v6.322l-6.91-6.912a.837.837,0,0,0-.59-.243h-20a4.171,4.171,0,0,1-4.166-4.167v-20a4.171,4.171,0,0,1,4.166-4.166h28.334a4.171,4.171,0,0,1,4.166,4.166Z" transform="translate(-838 -55)" fill="#919299"/>
</svg>
