<svg xmlns="http://www.w3.org/2000/svg" width="105" height="85.746" viewBox="0 0 105 85.746">
  <g id="Group_7" data-name="Group 7" transform="translate(-894 -341.551)">
    <path id="Path_17" data-name="Path 17" d="M974.5,397.547a5.249,5.249,0,0,0,5.249-5.25V346.8a5.25,5.25,0,0,0-5.249-5.25H906.251A5.25,5.25,0,0,0,901,346.8v39.911L894.126,403.9a1.752,1.752,0,0,0,2.3,2.266l20.674-8.615Zm-58.42-3.365-17.149,7.148,5.45-13.631a1.776,1.776,0,0,0,.124-.651V346.8a1.749,1.749,0,0,1,1.75-1.75H974.5a1.75,1.75,0,0,1,1.75,1.75v45.5a1.75,1.75,0,0,1-1.75,1.749H916.75A1.755,1.755,0,0,0,916.076,394.182Z" fill="#545454"/>
    <path id="Path_18" data-name="Path 18" d="M998.87,424.885l-6.875-17.176V367.8a5.25,5.25,0,0,0-5.25-5.249h-1.75a1.75,1.75,0,1,0,0,3.5h1.75a1.751,1.751,0,0,1,1.75,1.75v40.247c.044.217.086.434.124.651l5.454,13.632-17.149-7.143a1.72,1.72,0,0,0-.327-.065,1.629,1.629,0,0,0-.351-.075H918.5a1.75,1.75,0,0,1-1.75-1.75v-5.25a1.75,1.75,0,0,0-3.5,0v5.25a5.249,5.249,0,0,0,5.25,5.249h57.4l20.674,8.615a1.75,1.75,0,0,0,2.3-2.275Z" fill="#545454"/>
    <path id="Path_19" data-name="Path 19" d="M922,362.55h-7a5.25,5.25,0,0,0-5.25,5.249v3.5a5.251,5.251,0,0,0,5.25,5.25h7a5.25,5.25,0,0,0,5.25-5.25v-3.5A5.249,5.249,0,0,0,922,362.55Zm1.75,8.749a1.75,1.75,0,0,1-1.75,1.75h-7a1.751,1.751,0,0,1-1.75-1.75v-3.5a1.751,1.751,0,0,1,1.75-1.75h7a1.75,1.75,0,0,1,1.75,1.75Z" fill="#545454"/>
    <path id="Path_20" data-name="Path 20" d="M944.748,362.55h-7A5.249,5.249,0,0,0,932.5,367.8v3.5a5.25,5.25,0,0,0,5.249,5.25h7A5.25,5.25,0,0,0,950,371.3v-3.5A5.249,5.249,0,0,0,944.748,362.55Zm1.75,8.749a1.751,1.751,0,0,1-1.75,1.75h-7A1.75,1.75,0,0,1,936,371.3v-3.5a1.75,1.75,0,0,1,1.749-1.75h7a1.751,1.751,0,0,1,1.75,1.75v3.5Z" fill="#545454"/>
    <path id="Path_21" data-name="Path 21" d="M967.5,362.55h-7a5.25,5.25,0,0,0-5.25,5.249v3.5a5.251,5.251,0,0,0,5.25,5.25h7a5.251,5.251,0,0,0,5.25-5.25v-3.5A5.25,5.25,0,0,0,967.5,362.55Zm1.75,8.749a1.75,1.75,0,0,1-1.75,1.75h-7a1.75,1.75,0,0,1-1.75-1.75v-3.5a1.75,1.75,0,0,1,1.75-1.75h7a1.75,1.75,0,0,1,1.75,1.75Z" fill="#545454"/>
  </g>
</svg>
