<svg xmlns="http://www.w3.org/2000/svg" width="100" height="99.998" viewBox="0 0 100 99.998">
  <g id="Icon" transform="translate(-604.5 -644.883)">
    <path id="Shape" d="M606.167,721.549a1.666,1.666,0,0,0,1.666-1.666V653.216a5,5,0,0,1,5-5H649.5a5,5,0,0,1,5,5v3.333a1.667,1.667,0,0,0,1.667,1.667h30a5,5,0,0,1,5,5v3.333H644.5a1.667,1.667,0,0,0,0,3.334h48.333a8.344,8.344,0,0,1,8.334,8.333v48.333a8.345,8.345,0,0,1-8.334,8.334H634.5a1.667,1.667,0,1,0,0,3.333h58.333A11.679,11.679,0,0,0,704.5,726.549V678.216a11.676,11.676,0,0,0-10-11.533v-3.467a8.343,8.343,0,0,0-8.333-8.333H657.833v-1.667a8.342,8.342,0,0,0-8.333-8.333H612.833a8.342,8.342,0,0,0-8.333,8.333v66.667a1.666,1.666,0,0,0,1.667,1.666Z" fill="#545454"/>
    <path id="Shape-2" data-name="Shape" d="M629.5,666.549a1.667,1.667,0,0,0,0,3.334h6.667a1.667,1.667,0,0,0,0-3.334Z" fill="#545454"/>
    <path id="Shape-3" data-name="Shape" d="M647.7,721.674a20,20,0,0,0,8.03-38.31,1.667,1.667,0,0,0-1.333,3.055,16.689,16.689,0,1,1-9.574-1.148,1.666,1.666,0,1,0-.568-3.283,20,20,0,0,0,3.445,39.686Z" fill="#545454"/>
    <path id="Shape-4" data-name="Shape" d="M608.81,742.929a6.666,6.666,0,0,0,9.427,0l10.606-10.606a3.316,3.316,0,0,0,.852-3.207l4.485-4.485a26.667,26.667,0,1,0-9.43-9.427l-4.482,4.484a3.318,3.318,0,0,0-3.21.851l-10.6,10.6a6.669,6.669,0,0,0,0,9.429ZM631.2,685.183a23.261,23.261,0,1,1-6.865,16.5,23.332,23.332,0,0,1,6.865-16.5Zm-4.552,32.833a26.959,26.959,0,0,0,2.193,2.522,26.562,26.562,0,0,0,2.522,2.193l-3.7,3.7-2.357-2.357-2.358-2.358ZM608.817,733.5l10.6-10.6,7.07,7.07L615.88,740.573a3.413,3.413,0,0,1-4.713,0l-2.357-2.357a3.333,3.333,0,0,1,0-4.715Z" fill="#545454"/>
  </g>
</svg>
