<svg xmlns="http://www.w3.org/2000/svg" width="80" height="80" viewBox="0 0 80 80">
  <g id="Icon" transform="translate(-663.457 -915.032)">
    <g id="Icon-2" data-name="Icon">
      <path id="Path_19" data-name="Path 19" d="M703.419,975.356A20.314,20.314,0,1,1,709.94,935.8a1.562,1.562,0,1,1-1,2.96,17.187,17.187,0,1,0,10.629,10.385,1.563,1.563,0,1,1,2.937-1.069,20.4,20.4,0,0,1-4.723,21.328A20.183,20.183,0,0,1,703.419,975.356Z" fill="#fff"/>
      <path id="Path_20" data-name="Path 20" d="M710.332,995.032h-13.75a1.562,1.562,0,0,1-1.562-1.563v-6.676a32.579,32.579,0,0,1-8.056-3.336l-4.72,4.721a1.564,1.564,0,0,1-2.21,0l-9.722-9.723a1.562,1.562,0,0,1,0-2.21l4.72-4.72a32.579,32.579,0,0,1-3.336-8.056H665.02a1.562,1.562,0,0,1-1.563-1.562v-13.75a1.563,1.563,0,0,1,1.563-1.563h6.687a32.565,32.565,0,0,1,3.34-8.041l-4.735-4.735a1.561,1.561,0,0,1,0-2.209l9.722-9.723a1.562,1.562,0,0,1,2.21,0l4.746,4.746a32.544,32.544,0,0,1,8.03-3.321v-6.717a1.562,1.562,0,0,1,1.562-1.562h13.75a1.562,1.562,0,0,1,1.563,1.562v6.727a32.547,32.547,0,0,1,8.015,3.326l4.76-4.761a1.562,1.562,0,0,1,2.21,0l9.723,9.723a1.563,1.563,0,0,1,0,2.209l-4.761,4.761a32.492,32.492,0,0,1,3.326,8.015H741.9a1.562,1.562,0,0,1,1.562,1.563v13.75a1.562,1.562,0,0,1-1.562,1.562h-6.717a32.541,32.541,0,0,1-3.321,8.03l4.746,4.746a1.562,1.562,0,0,1,0,2.21l-9.723,9.723a1.564,1.564,0,0,1-2.209,0l-4.735-4.736a32.578,32.578,0,0,1-8.041,3.34v6.687A1.563,1.563,0,0,1,710.332,995.032Zm-12.187-3.125H708.77v-6.35a1.561,1.561,0,0,1,1.219-1.524,29.471,29.471,0,0,0,9.346-3.882,1.562,1.562,0,0,1,1.943.214l4.5,4.5,7.514-7.513-4.508-4.508a1.561,1.561,0,0,1-.216-1.939,29.462,29.462,0,0,0,3.862-9.337,1.562,1.562,0,0,1,1.525-1.222h6.38V949.719h-6.389a1.563,1.563,0,0,1-1.525-1.219,29.479,29.479,0,0,0-3.867-9.323,1.562,1.562,0,0,1,.215-1.941l4.522-4.522-7.513-7.513-4.522,4.523a1.563,1.563,0,0,1-1.941.214,29.468,29.468,0,0,0-9.323-3.867,1.563,1.563,0,0,1-1.219-1.524v-6.39H698.145v6.38a1.561,1.561,0,0,1-1.222,1.525,29.462,29.462,0,0,0-9.337,3.862,1.561,1.561,0,0,1-1.939-.216l-4.508-4.508-7.513,7.514,4.5,4.5a1.564,1.564,0,0,1,.214,1.943,29.473,29.473,0,0,0-3.883,9.346,1.561,1.561,0,0,1-1.524,1.219h-6.35v10.625h6.341a1.563,1.563,0,0,1,1.526,1.222,29.449,29.449,0,0,0,3.875,9.36,1.563,1.563,0,0,1-.215,1.941l-4.483,4.483,7.513,7.513,4.483-4.483a1.563,1.563,0,0,1,1.941-.215,29.473,29.473,0,0,0,9.36,3.876,1.561,1.561,0,0,1,1.222,1.525v6.341Z" fill="#fff"/>
      <path id="Path_21" data-name="Path 21" d="M703.437,965.989a10.938,10.938,0,1,1,10.938-10.937A10.949,10.949,0,0,1,703.437,965.989Zm0-18.75a7.813,7.813,0,1,0,7.813,7.813A7.822,7.822,0,0,0,703.437,947.239Z" fill="#fff"/>
      <path id="Path_22" data-name="Path 22" d="M716.639,943.386a1.563,1.563,0,0,1-1.1-2.667l.075-.076a1.563,1.563,0,0,1,2.211,2.209l-.075.075A1.558,1.558,0,0,1,716.639,943.386Z" fill="#fff"/>
    </g>
  </g>
</svg>
