<svg xmlns="http://www.w3.org/2000/svg" width="80" height="65.331" viewBox="0 0 80 65.331">
  <g id="Icon" transform="translate(-1020.932 -922.366)">
    <g id="Group_8" data-name="Group 8">
      <g id="Group_7" data-name="Group 7">
        <path id="Path_23" data-name="Path 23" d="M1082.262,965.03a4,4,0,0,0,4-4V926.366a4,4,0,0,0-4-4h-52a4,4,0,0,0-4,4v30.409l-5.238,13.092a1.333,1.333,0,0,0,1.238,1.829,1.35,1.35,0,0,0,.514-.1l15.752-6.564Zm-44.51-2.564-13.066,5.446,4.152-10.386a1.338,1.338,0,0,0,.095-.5V926.366a1.333,1.333,0,0,1,1.333-1.333h52a1.333,1.333,0,0,1,1.333,1.333V961.03a1.333,1.333,0,0,1-1.333,1.334h-44A1.331,1.331,0,0,0,1037.752,962.466Z" fill="#fff"/>
        <path id="Path_24" data-name="Path 24" d="M1100.833,985.859l-5.238-13.087V942.365a4,4,0,0,0-4-4h-1.333a1.333,1.333,0,0,0,0,2.667h1.333a1.333,1.333,0,0,1,1.333,1.333v30.664q.051.247.095.5l4.155,10.386-13.065-5.442a1.334,1.334,0,0,0-.25-.049,1.232,1.232,0,0,0-.268-.058h-44a1.333,1.333,0,0,1-1.333-1.333v-4a1.333,1.333,0,0,0-2.666,0v4a4,4,0,0,0,4,4h43.73l15.752,6.563a1.333,1.333,0,0,0,1.752-1.733Z" fill="#fff"/>
        <path id="Path_25" data-name="Path 25" d="M1042.265,938.365h-5.333a4,4,0,0,0-4,4v2.667a4,4,0,0,0,4,4h5.333a4,4,0,0,0,4-4v-2.667A4,4,0,0,0,1042.265,938.365Zm1.333,6.666a1.333,1.333,0,0,1-1.333,1.334h-5.333a1.333,1.333,0,0,1-1.333-1.334v-2.666a1.333,1.333,0,0,1,1.333-1.333h5.333a1.333,1.333,0,0,1,1.333,1.333Z" fill="#fff"/>
        <path id="Path_26" data-name="Path 26" d="M1059.6,938.365h-5.333a4,4,0,0,0-4,4v2.667a4,4,0,0,0,4,4h5.333a4,4,0,0,0,4-4v-2.667A4,4,0,0,0,1059.6,938.365Zm1.333,6.666a1.333,1.333,0,0,1-1.333,1.334h-5.333a1.333,1.333,0,0,1-1.333-1.334v-2.666a1.333,1.333,0,0,1,1.333-1.333h5.333a1.333,1.333,0,0,1,1.333,1.333v2.666Z" fill="#fff"/>
        <path id="Path_27" data-name="Path 27" d="M1076.929,938.365H1071.6a4,4,0,0,0-4,4v2.667a4,4,0,0,0,4,4h5.333a4,4,0,0,0,4-4v-2.667A4,4,0,0,0,1076.929,938.365Zm1.333,6.666a1.333,1.333,0,0,1-1.333,1.334H1071.6a1.333,1.333,0,0,1-1.333-1.334v-2.666a1.333,1.333,0,0,1,1.333-1.333h5.333a1.333,1.333,0,0,1,1.333,1.333Z" fill="#fff"/>
      </g>
    </g>
  </g>
</svg>
