<svg xmlns="http://www.w3.org/2000/svg" width="75.001" height="75" viewBox="0 0 75.001 75">
  <g id="Icon" transform="translate(-1202.169 -917.532)">
    <path id="Path_28" data-name="Path 28" d="M1262.521,937.454a1.465,1.465,0,1,0,1.465-1.465A1.465,1.465,0,0,0,1262.521,937.454Z" fill="#fff"/>
    <path id="Path_29" data-name="Path 29" d="M1268.38,955.032a27.885,27.885,0,0,1-.559,5.566,1.465,1.465,0,0,0,1.143,1.728,1.413,1.413,0,0,0,.294.031,1.466,1.466,0,0,0,1.434-1.173,30.845,30.845,0,0,0,.618-6.152,30.424,30.424,0,0,0-2.974-13.193,1.465,1.465,0,1,0-2.644,1.261A27.525,27.525,0,0,1,1268.38,955.032Z" fill="#fff"/>
    <path id="Path_30" data-name="Path 30" d="M1246.994,968.215h-1.465V949.172a1.464,1.464,0,0,0-1.465-1.464h-11.719a1.464,1.464,0,0,0-1.465,1.464v5.86a1.465,1.465,0,0,0,1.465,1.465h1.465v11.718h-1.465a1.465,1.465,0,0,0-1.465,1.465v5.86a1.464,1.464,0,0,0,1.465,1.464h14.649a1.464,1.464,0,0,0,1.465-1.464v-5.86A1.465,1.465,0,0,0,1246.994,968.215Zm-1.465,5.86H1233.81v-2.93h1.465a1.465,1.465,0,0,0,1.465-1.465V955.032a1.465,1.465,0,0,0-1.465-1.465h-1.465v-2.93h8.789V969.68a1.466,1.466,0,0,0,1.465,1.465h1.465Z" fill="#fff"/>
    <path id="Path_31" data-name="Path 31" d="M1239.67,944.778a5.859,5.859,0,1,0-5.86-5.86A5.867,5.867,0,0,0,1239.67,944.778Zm0-8.789a2.93,2.93,0,1,1-2.93,2.929A2.932,2.932,0,0,1,1239.67,935.989Z" fill="#fff"/>
    <path id="Path_32" data-name="Path 32" d="M1239.67,917.532c-20.212,0-37.5,17.256-37.5,37.5a39.943,39.943,0,0,0,5.322,19.831l-5.247,15.741a1.464,1.464,0,0,0,1.853,1.852l15.741-5.247a39.927,39.927,0,0,0,19.831,5.323c20.216,0,37.5-17.259,37.5-37.5C1277.17,934.815,1259.912,917.532,1239.67,917.532Zm0,72.07a36.633,36.633,0,0,1-18.861-5.236,1.461,1.461,0,0,0-1.248-.152l-13.61,4.537,4.537-13.611a1.467,1.467,0,0,0-.152-1.247,36.636,36.636,0,0,1-5.237-18.861c0-18.739,15.831-34.571,34.571-34.571s34.57,15.832,34.57,34.571S1258.409,989.6,1239.67,989.6Z" fill="#fff"/>
  </g>
</svg>
