<svg xmlns="http://www.w3.org/2000/svg" width="76.141" height="76.136" viewBox="0 0 76.141 76.136">
  <g id="Icon" transform="translate(-310.01 -916.964)">
    <path id="Path_6" data-name="Path 6" d="M386.15,946.146c0-.027-.014-.05-.015-.075a1.2,1.2,0,0,0-.052-.259,1.317,1.317,0,0,0-.072-.22,1.211,1.211,0,0,0-.127-.19,1.177,1.177,0,0,0-.173-.2c-.02-.018-.029-.042-.05-.059l-12.2-9.478v-9.824a3.807,3.807,0,0,0-3.807-3.807H355.9l-5.507-4.275a3.765,3.765,0,0,0-4.628,0l-5.507,4.275H326.506a3.808,3.808,0,0,0-3.807,3.807v9.824l-12.2,9.478c-.022.017-.031.041-.051.059a1.218,1.218,0,0,0-.172.2,1.147,1.147,0,0,0-.127.19,1.321,1.321,0,0,0-.073.22,1.3,1.3,0,0,0-.052.254c0,.025-.015.048-.015.075v43.152a3.774,3.774,0,0,0,.212,1.2,1.257,1.257,0,0,0,1.4,1.9,3.775,3.775,0,0,0,2.2.7h68.528a3.784,3.784,0,0,0,2.2-.715,1.216,1.216,0,0,0,.334.055,1.257,1.257,0,0,0,1.058-1.948,3.772,3.772,0,0,0,.211-1.2V946.146Zm-38.832-26.385a1.217,1.217,0,0,1,1.514,0l2.928,2.273H344.4Zm-33.187,70.8,33.187-25.779a1.221,1.221,0,0,1,1.513,0l33.2,25.779Zm69.481-1.982-33.22-25.8a3.764,3.764,0,0,0-4.625,0l-33.22,25.8v-40.5l20.8,16.149a1.27,1.27,0,1,0,1.556-2.007l-21.127-16.4,8.928-6.937v9.806a1.269,1.269,0,0,0,2.538,0V925.841a1.269,1.269,0,0,1,1.269-1.269h43.147a1.269,1.269,0,0,1,1.269,1.269v22.843a1.269,1.269,0,0,0,2.538,0v-9.806l8.927,6.937L361.223,962.25a1.269,1.269,0,1,0,1.557,2.005l20.832-16.176Z" fill="#fdffff"/>
    <path id="Path_7" data-name="Path 7" d="M335.389,933.455H360.77a1.268,1.268,0,1,0,0-2.537H335.389a1.268,1.268,0,1,0,0,2.537Z" fill="#fdffff"/>
    <path id="Path_8" data-name="Path 8" d="M362.039,939.8a1.269,1.269,0,0,0-1.269-1.269H335.389a1.269,1.269,0,1,0,0,2.538H360.77A1.269,1.269,0,0,0,362.039,939.8Z" fill="#fdffff"/>
    <path id="Path_9" data-name="Path 9" d="M362.039,947.415a1.269,1.269,0,0,0-1.269-1.269H349.349a1.269,1.269,0,1,0,0,2.538H360.77A1.269,1.269,0,0,0,362.039,947.415Z" fill="#fdffff"/>
  </g>
</svg>
