<svg xmlns="http://www.w3.org/2000/svg" width="100" height="59.698" viewBox="0 0 100 59.698">
  <g id="Icon" transform="translate(-476.818 -925.183)">
    <path id="Path_10" data-name="Path 10" d="M483.96,939.467a7.142,7.142,0,1,0-7.142-7.142A7.151,7.151,0,0,0,483.96,939.467Zm0-11.354a4.212,4.212,0,1,1-4.212,4.212A4.216,4.216,0,0,1,483.96,928.113Z" fill="#fff"/>
    <path id="Path_11" data-name="Path 11" d="M501.757,962.173h46.365a7.141,7.141,0,0,0,0-14.283H501.757a7.141,7.141,0,0,0,0,14.283Zm0-11.353h46.365a4.212,4.212,0,0,1,0,8.424H501.757a4.212,4.212,0,0,1,0-8.424Z" fill="#fff"/>
    <path id="Path_12" data-name="Path 12" d="M483.96,984.881a7.142,7.142,0,1,0-7.142-7.142A7.15,7.15,0,0,0,483.96,984.881Zm0-11.354a4.212,4.212,0,1,1-4.212,4.212A4.216,4.216,0,0,1,483.96,973.527Z" fill="#fff"/>
    <path id="Path_13" data-name="Path 13" d="M501.757,984.881h46.365a7.142,7.142,0,0,0,0-14.284H501.757a7.142,7.142,0,0,0,0,14.284Zm0-11.354h46.365a4.212,4.212,0,1,1,0,8.423H501.757a4.212,4.212,0,1,1,0-8.423Z" fill="#fff"/>
    <path id="Path_14" data-name="Path 14" d="M576.389,926.783a1.465,1.465,0,0,0-2.072,0l-7.974,7.975-4.621-4.621a1.465,1.465,0,0,0-2.072,2.071l5.658,5.657a1.464,1.464,0,0,0,2.071,0l9.01-9.009A1.467,1.467,0,0,0,576.389,926.783Z" fill="#fff"/>
    <path id="Path_15" data-name="Path 15" d="M576.389,949.491a1.465,1.465,0,0,0-2.072,0l-7.974,7.974-4.621-4.622a1.465,1.465,0,0,0-2.072,2.072l5.658,5.658a1.464,1.464,0,0,0,2.071,0l9.01-9.011A1.464,1.464,0,0,0,576.389,949.491Z" fill="#fff"/>
    <path id="Path_16" data-name="Path 16" d="M576.389,972.2a1.465,1.465,0,0,0-2.072,0l-7.974,7.975-4.621-4.622a1.465,1.465,0,0,0-2.072,2.071l5.658,5.657a1.464,1.464,0,0,0,2.071,0l9.01-9.009A1.465,1.465,0,0,0,576.389,972.2Z" fill="#fff"/>
    <path id="Path_17" data-name="Path 17" d="M501.757,928.113h19.765a1.465,1.465,0,0,0,0-2.93H501.757a7.142,7.142,0,0,0,0,14.283h46.365a7.142,7.142,0,0,0,0-14.283H528.358a1.465,1.465,0,0,0,0,2.93h19.764a4.212,4.212,0,1,1,0,8.423H501.757a4.212,4.212,0,1,1,0-8.423Z" fill="#fff"/>
    <path id="Path_18" data-name="Path 18" d="M483.96,962.173a7.088,7.088,0,0,0,5.7-2.84,1.465,1.465,0,1,0-2.337-1.766,4.212,4.212,0,1,1,0-5.07,1.465,1.465,0,0,0,2.337-1.766,7.141,7.141,0,1,0-5.7,11.442Z" fill="#fff"/>
  </g>
</svg>
