<svg xmlns="http://www.w3.org/2000/svg" width="80" height="80" viewBox="0 0 80 80">
  <g id="Icon" transform="translate(-842.195 -915.032)">
    <path id="Shape" d="M843.528,976.366a1.334,1.334,0,0,0,1.333-1.334V921.7a4,4,0,0,1,4-4H878.2a4,4,0,0,1,4,4v2.667a1.333,1.333,0,0,0,1.333,1.333h24a4,4,0,0,1,4,4v2.667H874.2a1.333,1.333,0,1,0,0,2.666h38.666a6.675,6.675,0,0,1,6.667,6.667v38.667a6.674,6.674,0,0,1-6.667,6.666H866.2a1.333,1.333,0,1,0,0,2.667h46.666a9.344,9.344,0,0,0,9.334-9.333V941.7a9.343,9.343,0,0,0-8-9.227V929.7a6.676,6.676,0,0,0-6.667-6.667H884.861V921.7a6.675,6.675,0,0,0-6.666-6.667H848.861A6.675,6.675,0,0,0,842.2,921.7v53.333a1.333,1.333,0,0,0,1.333,1.334Z" fill="#fff"/>
    <path id="Shape-2" data-name="Shape" d="M862.2,932.366a1.333,1.333,0,1,0,0,2.666h5.333a1.333,1.333,0,1,0,0-2.666Z" fill="#fff"/>
    <path id="Shape-3" data-name="Shape" d="M876.755,976.466a16,16,0,0,0,6.424-30.648,1.333,1.333,0,0,0-1.067,2.444,13.35,13.35,0,1,1-7.659-.919,1.333,1.333,0,1,0-.454-2.627,16,16,0,0,0,2.756,31.75Z" fill="#fff"/>
    <path id="Shape-4" data-name="Shape" d="M845.643,993.47a5.333,5.333,0,0,0,7.541,0l8.485-8.486a2.65,2.65,0,0,0,.682-2.565l3.588-3.588a21.333,21.333,0,1,0-7.544-7.541l-3.586,3.586a2.656,2.656,0,0,0-2.568.682l-8.484,8.484a5.333,5.333,0,0,0,0,7.542Zm17.913-46.2a18.609,18.609,0,1,1-5.492,13.2,18.666,18.666,0,0,1,5.492-13.2Zm-3.641,26.267a21.424,21.424,0,0,0,1.754,2.017,21.184,21.184,0,0,0,2.018,1.755l-2.959,2.96-1.885-1.885-1.887-1.887Zm-14.267,12.387,8.48-8.483,5.656,5.656-8.485,8.485a2.729,2.729,0,0,1-3.771,0l-1.885-1.885a2.665,2.665,0,0,1,0-3.772Z" fill="#fff"/>
  </g>
</svg>
