<svg xmlns="http://www.w3.org/2000/svg" width="105" height="105" viewBox="0 0 105 105">
  <g id="Icon" transform="translate(-308.999 -642.382)">
    <path id="Path_28" data-name="Path 28" d="M361.448,721.558a26.662,26.662,0,1,1,8.56-51.914,2.051,2.051,0,1,1-1.314,3.885,22.558,22.558,0,1,0,13.95,13.631,2.051,2.051,0,0,1,3.854-1.4,26.766,26.766,0,0,1-6.2,27.993A26.482,26.482,0,0,1,361.448,721.558Z" fill="#545454"/>
    <path id="Path_29" data-name="Path 29" d="M370.522,747.382H352.475a2.05,2.05,0,0,1-2.05-2.051v-8.763a42.71,42.71,0,0,1-10.573-4.378l-6.2,6.2a2.05,2.05,0,0,1-2.9,0l-12.761-12.761a2.05,2.05,0,0,1,0-2.9l6.2-6.2a42.67,42.67,0,0,1-4.378-10.573H311.05A2.051,2.051,0,0,1,309,703.905V685.859a2.051,2.051,0,0,1,2.051-2.051h8.776a42.725,42.725,0,0,1,4.384-10.554l-6.215-6.215a2.048,2.048,0,0,1,0-2.9l12.761-12.762a2.05,2.05,0,0,1,2.9,0l6.229,6.23a42.723,42.723,0,0,1,10.54-4.36v-8.815a2.05,2.05,0,0,1,2.05-2.051h18.047a2.051,2.051,0,0,1,2.051,2.051v8.829a42.692,42.692,0,0,1,10.52,4.365l6.247-6.249a2.051,2.051,0,0,1,2.9,0L405,664.14a2.051,2.051,0,0,1,0,2.9l-6.249,6.248a42.738,42.738,0,0,1,4.365,10.521h8.829A2.051,2.051,0,0,1,414,685.859v18.046a2.051,2.051,0,0,1-2.051,2.051h-8.815a42.7,42.7,0,0,1-4.36,10.539l6.23,6.23a2.052,2.052,0,0,1,0,2.9l-12.762,12.761a2.052,2.052,0,0,1-2.9,0l-6.215-6.215a42.719,42.719,0,0,1-10.553,4.384v8.776A2.051,2.051,0,0,1,370.522,747.382Zm-16-4.1h13.945v-8.333a2.05,2.05,0,0,1,1.6-2,38.677,38.677,0,0,0,12.266-5.095,2.051,2.051,0,0,1,2.55.281l5.9,5.9,9.862-9.86-5.916-5.916a2.049,2.049,0,0,1-.284-2.546,38.7,38.7,0,0,0,5.069-12.255,2.049,2.049,0,0,1,2-1.6H409.9V687.909h-8.386a2.052,2.052,0,0,1-2-1.6,38.692,38.692,0,0,0-5.076-12.236,2.049,2.049,0,0,1,.282-2.547l5.936-5.936-9.861-9.861-5.936,5.936a2.05,2.05,0,0,1-2.547.282,38.674,38.674,0,0,0-12.236-5.076,2.052,2.052,0,0,1-1.6-2v-8.386H354.526v8.374a2.049,2.049,0,0,1-1.6,2,38.678,38.678,0,0,0-12.255,5.069,2.05,2.05,0,0,1-2.546-.284l-5.916-5.916-9.86,9.862,5.9,5.9a2.053,2.053,0,0,1,.281,2.55,38.655,38.655,0,0,0-5.1,12.266,2.051,2.051,0,0,1-2,1.6H313.1v13.946h8.323a2.051,2.051,0,0,1,2,1.6,38.613,38.613,0,0,0,5.087,12.285,2.053,2.053,0,0,1-.282,2.548l-5.884,5.884,9.86,9.86,5.884-5.883a2.052,2.052,0,0,1,2.548-.283,38.693,38.693,0,0,0,12.285,5.088,2.051,2.051,0,0,1,1.6,2v8.322Z" fill="#545454"/>
    <path id="Path_30" data-name="Path 30" d="M361.472,709.264a14.355,14.355,0,1,1,14.356-14.356A14.372,14.372,0,0,1,361.472,709.264Zm0-24.609a10.253,10.253,0,1,0,10.254,10.253A10.266,10.266,0,0,0,361.472,684.655Z" fill="#545454"/>
    <path id="Path_31" data-name="Path 31" d="M378.8,679.6a2.051,2.051,0,0,1-1.451-3.5l.1-.1a2.051,2.051,0,0,1,2.9,2.9l-.1.1A2.044,2.044,0,0,1,378.8,679.6Z" fill="#545454"/>
  </g>
</svg>
